<?xml version="1.0" encoding="UTF-8" standalone="no"?>
<!-- Created with Inkscape (http://www.inkscape.org/) -->

<svg
   width="40.953758mm"
   height="40.953693mm"
   viewBox="0 0 40.953758 40.953693"
   version="1.1"
   id="svg1"
   inkscape:version="1.3.2 (091e20e, 2023-11-25)"
   sodipodi:docname="ucc.svg"
   xmlns:inkscape="http://www.inkscape.org/namespaces/inkscape"
   xmlns:sodipodi="http://sodipodi.sourceforge.net/DTD/sodipodi-0.dtd"
   xmlns="http://www.w3.org/2000/svg"
   xmlns:svg="http://www.w3.org/2000/svg">
  <sodipodi:namedview
     id="namedview1"
     pagecolor="#ffffff"
     bordercolor="#000000"
     borderopacity="0.25"
     inkscape:showpageshadow="2"
     inkscape:pageopacity="0.0"
     inkscape:pagecheckerboard="0"
     inkscape:deskcolor="#d1d1d1"
     inkscape:document-units="mm"
     inkscape:zoom="0.8409652"
     inkscape:cx="-136.15308"
     inkscape:cy="-2.3782197"
     inkscape:window-width="1512"
     inkscape:window-height="843"
     inkscape:window-x="0"
     inkscape:window-y="38"
     inkscape:window-maximized="0"
     inkscape:current-layer="layer1" />
  <defs
     id="defs1" />
  <g
     inkscape:label="Layer 1"
     inkscape:groupmode="layer"
     id="layer1"
     transform="translate(-55.033333,-11.112496)">
    <path
       d="m 75.510141,11.112496 c -11.309139,0 -20.476808,9.167637 -20.476808,20.476847 0,11.308327 9.167669,20.476846 20.476808,20.476846 11.309315,0 20.476952,-9.168519 20.476952,-20.476846 0,-11.30921 -9.167637,-20.476847 -20.476952,-20.476847 m 18.689074,22.412997 c -0.103717,1.060415 -0.287514,2.104531 -0.555272,3.134219 -0.442736,1.69665 -1.100667,3.305493 -1.978025,4.824766 -0.69462,1.202337 -1.510806,2.315386 -2.448419,3.338054 -1.261851,1.376927 -2.691448,2.549913 -4.294929,3.509433 -1.299774,0.777487 -2.672151,1.393049 -4.118822,1.841183 -0.836471,0.259221 -1.686701,0.459599 -2.552524,0.60071 -0.514279,0.08322 -1.031063,0.14605 -1.549188,0.190147 -0.770185,0.06562 -1.54178,0.07482 -2.312353,0.03916 -0.665727,-0.03101 -1.329972,-0.0955 -1.988926,-0.201331 -0.834813,-0.134514 -1.656538,-0.322897 -2.462142,-0.570935 l 1.912973,-0.438503 c 0.249732,-0.0412 1.524,-0.48574 1.666734,-0.556578 1.279102,-0.643114 2.468492,-1.4206 3.559775,-2.346642 1.426387,-1.210346 2.627348,-2.615107 3.589796,-4.220951 0.801582,-1.337804 1.394002,-2.763379 1.750907,-4.283887 0.12887,-0.547934 0.21844,-1.102184 0.280317,-1.662218 0.0332,-0.304271 0.04311,-0.610059 0.05937,-0.914471 0.0193,-0.368335 -0.01527,-0.736 -0.05634,-1.102148 -0.04096,-0.373698 -0.112889,-0.740693 -0.213889,-1.102713 -0.190041,-0.675923 -0.490432,-1.297552 -0.89669,-1.869158 l -0.08103,-0.09328 -0.05249,0.01058 -0.06421,0.175436 c -0.105022,0.34671 -0.23936,0.681849 -0.403931,1.004041 -0.552168,1.079006 -1.355408,1.925391 -2.383437,2.561096 -0.82102,0.507224 -1.712207,0.824724 -2.663755,0.973032 -0.397686,0.06255 -0.8001,0.0974 -1.204136,0.08654 -1.441839,-0.0393 -2.761016,-0.449403 -3.9249,-1.316707 -1.102184,-0.821197 -1.843547,-1.892195 -2.229697,-3.211407 -0.161361,-0.548464 -0.250931,-1.107511 -0.295028,-1.6776 -0.03404,-0.45339 -0.02551,-0.903605 0.02011,-1.352268 0.146791,-1.433442 0.65719,-2.719423 1.580057,-3.833883 0.898348,-1.08585 2.029036,-1.843617 3.33502,-2.352675 0.728274,-0.283986 1.483713,-0.464961 2.257495,-0.565856 0.247086,-0.03245 0.496641,-0.05962 0.746902,-0.06103 0.138888,0 0.277953,-0.0194 0.416277,-0.0187 1.443497,0.0064 2.826633,0.289631 4.14267,0.890764 0.963119,0.439209 1.829753,1.020939 2.609039,1.736725 0.882791,0.812448 1.598683,1.753236 2.17484,2.803596 0.629461,1.14928 1.04648,2.374195 1.304572,3.654814 0.11109,0.551356 0.181363,1.108921 0.23234,1.670473 0.0332,0.373839 0.0448,0.749088 0.05182,1.123633 0.0076,0.443335 -0.0102,0.888294 -0.0495,1.331489 -0.0248,0.277389 -0.0533,0.552979 -0.08791,0.828745 -0.05648,0.440973 -0.137654,0.877535 -0.23495,1.311593 -0.274073,1.226326 -0.700441,2.398078 -1.263509,3.520229 l -0.05101,0.11437 0.0094,0.05704 0.07013,-0.01171 0.09825,-0.107491 c 1.132205,-1.402433 1.95393,-2.964851 2.428945,-4.706409 0.176107,-0.644102 0.296404,-1.298399 0.372887,-1.961656 0.07497,-0.649605 0.120579,-1.300586 0.108867,-1.954036 -0.0091,-0.507401 -0.04381,-1.012579 -0.105692,-1.516945 -0.07966,-0.641773 -0.203941,-1.274269 -0.376873,-1.897557 -0.42859,-1.545484 -1.12836,-2.954796 -2.123017,-4.214671 -1.347717,-1.70815 -3.054562,-2.916061 -5.097357,-3.656895 -0.733813,-0.265642 -1.487593,-0.454025 -2.256966,-0.574675 -0.308822,-0.04868 -0.619408,-0.08008 -0.931404,-0.106539 -0.360645,-0.02999 -0.721396,-0.03704 -1.082746,-0.03175 -1.71069,0.02646 -3.328776,0.417336 -4.830163,1.250598 -0.677298,0.376061 -1.296705,0.833261 -1.862138,1.363133 -0.647947,0.608542 -1.197786,1.294342 -1.649624,2.058811 -0.506589,0.856721 -0.8642,1.771051 -1.081899,2.74119 -0.122237,0.54296 -0.194028,1.092094 -0.221756,1.648848 -0.02078,0.410915 -0.01309,0.821161 0.02233,1.227949 0.07719,0.884414 0.2788,1.740182 0.619584,2.561907 0.402942,0.97469 0.966822,1.845063 1.707515,2.59514 1.088108,1.101196 2.395043,1.815006 3.902604,2.161575 0.426932,0.09825 0.860319,0.14979 1.297411,0.183268 0.418677,0.03129 0.833332,0.0076 1.248798,-0.02092 0.152259,-0.01005 0.302895,-0.03789 0.454343,-0.05803 l 0.185208,-0.02395 c -0.185208,0.138465 -0.384634,0.219357 -0.583071,0.298873 -0.538233,0.214701 -1.095128,0.363114 -1.668251,0.437268 -0.594607,0.07786 -1.191013,0.08156 -1.787984,0.01446 -0.873548,-0.09715 -1.698307,-0.349603 -2.476077,-0.755156 -0.926041,-0.48193 -1.702964,-1.14614 -2.355462,-1.957776 -0.673594,-0.836471 -1.17094,-1.77038 -1.552363,-2.770434 -0.293511,-0.76768 -0.50285,-1.559243 -0.644913,-2.368021 -0.0696,-0.39617 -0.115076,-0.796079 -0.146791,-1.198457 -0.03238,-0.409575 -0.03856,-0.818833 -0.02935,-1.228937 0.02247,-0.955251 0.161396,-1.894417 0.420864,-2.814249 0.400861,-1.415733 1.058898,-2.699491 1.968676,-3.854133 0.539891,-0.684036 1.14995,-1.301397 1.819558,-1.859492 1.336957,-1.114425 2.839014,-1.944158 4.457135,-2.571045 1.019599,-0.395463 2.069924,-0.684388 3.145649,-0.875241 0.471982,-0.08431 0.946821,-0.146756 1.425011,-0.186267 0.525992,-0.04374 1.052689,-0.07726 1.581044,-0.06914 0.681003,0.0088 1.359289,0.05821 2.034929,0.150283 1.7526,0.239536 3.409809,0.76835 4.968381,1.60655 0.890623,0.479072 1.71704,1.050925 2.48158,1.713795 1.188579,1.030111 2.162599,2.233436 2.930243,3.605036 0.669572,1.195564 1.150761,2.465352 1.468967,3.796242 0.142169,0.594642 0.248003,1.196269 0.3175,1.804141 0.06385,0.552027 0.105128,1.105182 0.127353,1.66123 0.01623,0.402379 0.02858,0.805463 0.01552,1.207841 -0.01693,0.562257 -0.0448,1.123809 -0.09878,1.684514"
       style="fill:#337dae;fill-opacity:1;fill-rule:nonzero;stroke:none;stroke-width:0.0352778"
       id="path88" />
  </g>
</svg>
