<?xml version="1.0" encoding="UTF-8" standalone="no"?>
<!-- Created with Inkscape (http://www.inkscape.org/) -->

<svg
   width="40.953758mm"
   height="40.953693mm"
   viewBox="0 0 40.953758 40.953693"
   version="1.1"
   id="svg1"
   inkscape:version="1.3.2 (091e20e, 2023-11-25)"
   sodipodi:docname="uccm.svg"
   xmlns:inkscape="http://www.inkscape.org/namespaces/inkscape"
   xmlns:sodipodi="http://sodipodi.sourceforge.net/DTD/sodipodi-0.dtd"
   xmlns="http://www.w3.org/2000/svg"
   xmlns:svg="http://www.w3.org/2000/svg">
  <sodipodi:namedview
     id="namedview1"
     pagecolor="#ffffff"
     bordercolor="#000000"
     borderopacity="0.25"
     inkscape:showpageshadow="2"
     inkscape:pageopacity="0.0"
     inkscape:pagecheckerboard="0"
     inkscape:deskcolor="#d1d1d1"
     inkscape:document-units="mm"
     inkscape:zoom="0.8409652"
     inkscape:cx="-136.15308"
     inkscape:cy="-2.3782197"
     inkscape:window-width="1512"
     inkscape:window-height="843"
     inkscape:window-x="0"
     inkscape:window-y="38"
     inkscape:window-maximized="0"
     inkscape:current-layer="layer1" />
  <defs
     id="defs1" />
  <g
     inkscape:label="Layer 1"
     inkscape:groupmode="layer"
     id="layer1"
     transform="translate(-55.033333,-11.112496)">
    <path
       d="m 78.813648,18.977962 c -9.484657,0 -17.173323,7.406923 -17.173323,16.544114 0,9.136477 7.688666,16.544113 17.173323,16.544113 9.484805,0 17.173445,-7.407636 17.173445,-16.544113 0,-9.137191 -7.68864,-16.544114 -17.173445,-16.544114 M 94.48765,37.086374 c -0.08698,0.856754 -0.24113,1.70034 -0.465691,2.532268 -0.37131,1.370796 -0.923099,2.670648 -1.658914,3.898134 -0.582558,0.971419 -1.267071,1.870698 -2.05342,2.696955 -1.058279,1.112478 -2.257242,2.060183 -3.602037,2.83542 -1.090084,0.628165 -2.241058,1.125503 -3.45434,1.48757 -0.701525,0.209435 -1.414589,0.371329 -2.14073,0.485339 -0.431312,0.06724 -0.864724,0.118 -1.299261,0.153628 -0.645932,0.05302 -1.293047,0.06045 -1.939305,0.03164 -0.558327,-0.02506 -1.11541,-0.07716 -1.668057,-0.162664 -0.700134,-0.10868 -1.389292,-0.260882 -2.064929,-0.461283 l 1.604357,-0.354285 c 0.209443,-0.03329 1.278136,-0.39245 1.397843,-0.449683 1.072747,-0.519599 2.070255,-1.147763 2.985483,-1.895952 1.196271,-0.977889 2.203483,-2.112855 3.010661,-3.410285 0.672264,-1.080869 1.16911,-2.232651 1.468437,-3.461134 0.108079,-0.442699 0.183199,-0.890501 0.235094,-1.342977 0.02784,-0.245833 0.03615,-0.492892 0.04979,-0.73884 0.01619,-0.297593 -0.01281,-0.594645 -0.04725,-0.890472 -0.03435,-0.301926 -0.09468,-0.598437 -0.179383,-0.890928 -0.159382,-0.546107 -0.411311,-1.048348 -0.752029,-1.510172 l -0.06796,-0.07536 -0.04402,0.0085 -0.05385,0.141742 c -0.08808,0.280122 -0.200745,0.550895 -0.338766,0.811207 -0.463088,0.871775 -1.136742,1.555605 -1.998921,2.069218 -0.688567,0.409808 -1.43598,0.66633 -2.234017,0.786154 -0.333528,0.05054 -0.671021,0.07869 -1.009875,0.06992 -1.20923,-0.03175 -2.315587,-0.363092 -3.291703,-1.063824 -0.924371,-0.66348 -1.546131,-1.528784 -1.869985,-2.594632 -0.135329,-0.443127 -0.210448,-0.894805 -0.247431,-1.355404 -0.02855,-0.366313 -0.02139,-0.730061 0.01686,-1.092555 0.12311,-1.158138 0.551167,-2.197137 1.32515,-3.097557 0.753419,-0.877304 1.701695,-1.489536 2.796987,-1.900826 0.610783,-0.229444 1.244349,-0.375661 1.893298,-0.457179 0.207224,-0.02622 0.416519,-0.04817 0.626406,-0.04931 0.116481,0 0.233111,-0.01568 0.34912,-0.01511 1.21062,0.0052 2.370617,0.234005 3.474341,0.719686 0.80774,0.354856 1.534562,0.82486 2.188127,1.403174 0.740372,0.656411 1.340771,1.416514 1.823978,2.265144 0.527911,0.928552 0.877653,1.918213 1.094107,2.952879 0.09317,0.445464 0.152105,0.895945 0.194858,1.349647 0.02784,0.30204 0.03757,0.60522 0.04346,0.90783 0.0064,0.358189 -0.0086,0.717691 -0.04151,1.075767 -0.0208,0.224114 -0.0447,0.446775 -0.07373,0.669578 -0.04737,0.356281 -0.115447,0.708998 -0.197046,1.059692 -0.229858,0.990801 -0.587441,1.937509 -1.05967,2.844142 l -0.04278,0.0924 0.0079,0.04608 0.05882,-0.0095 0.0824,-0.08685 c 0.949548,-1.133085 1.638706,-2.395429 2.037088,-3.802508 0.147696,-0.520397 0.248585,-1.049031 0.312729,-1.584905 0.06288,-0.524843 0.101127,-1.050798 0.0913,-1.578748 -0.0076,-0.409951 -0.03674,-0.818106 -0.08864,-1.225605 -0.06681,-0.518515 -0.171039,-1.029536 -0.316073,-1.533116 -0.35946,-1.248566 -0.946337,-2.387209 -1.780528,-3.405115 C 86.4441,28.603222 85.012617,27.6273 83.299382,27.028748 82.683954,26.814125 82.05178,26.661922 81.406528,26.564444 c -0.259,-0.03933 -0.51948,-0.0647 -0.781142,-0.08608 -0.302463,-0.02423 -0.605015,-0.02993 -0.908069,-0.02565 -1.434707,0.02138 -2.791751,0.337184 -4.050922,1.010412 -0.56803,0.303835 -1.08751,0.673227 -1.561723,1.101333 -0.543414,0.491667 -1.004549,1.045753 -1.383493,1.6634 -0.424862,0.692182 -0.72478,1.430908 -0.907358,2.214724 -0.102517,0.438681 -0.162726,0.882349 -0.185981,1.332174 -0.01743,0.331996 -0.01098,0.663451 0.01873,0.992113 0.06474,0.714555 0.233822,1.405966 0.519628,2.069873 0.337936,0.787493 0.810846,1.490705 1.432044,2.096724 0.912566,0.889703 2.008656,1.46642 3.273005,1.746428 0.358056,0.07938 0.721525,0.121022 1.088102,0.14807 0.351133,0.02528 0.698892,0.0061 1.047332,-0.0169 0.127695,-0.0081 0.254029,-0.03061 0.381045,-0.04688 l 0.155328,-0.01935 c -0.155328,0.111871 -0.322581,0.177227 -0.489005,0.241472 -0.451401,0.173466 -0.918453,0.293375 -1.399115,0.353287 -0.49868,0.06291 -0.998869,0.0659 -1.499532,0.01168 -0.73262,-0.07849 -1.424323,-0.282459 -2.076616,-0.610123 -0.776645,-0.389371 -1.428229,-0.926015 -1.97546,-1.58177 -0.564925,-0.67582 -0.982035,-1.430365 -1.301924,-2.238351 -0.246159,-0.620241 -0.421726,-1.259779 -0.54087,-1.913225 -0.05837,-0.320082 -0.09651,-0.643186 -0.123109,-0.968284 -0.02716,-0.330913 -0.03234,-0.66157 -0.02461,-0.99291 0.01884,-0.771788 0.135358,-1.53058 0.352966,-2.273752 0.336191,-1.14383 0.888068,-2.181033 1.651074,-3.113917 0.452791,-0.552662 0.96443,-1.051454 1.526012,-1.502363 1.121268,-0.900391 2.381001,-1.570768 3.738074,-2.077256 0.855109,-0.319511 1.735987,-0.552946 2.638167,-0.707145 0.395838,-0.06812 0.794072,-0.11857 1.195117,-0.150493 0.441135,-0.03534 0.882861,-0.06242 1.325977,-0.05586 0.571138,0.0071 1.139998,0.04703 1.706638,0.12142 1.469856,0.193532 2.859711,0.620783 4.166842,1.298 0.74694,0.387063 1.440033,0.849087 2.081231,1.384648 0.996828,0.83227 1.813711,1.804488 2.457513,2.912662 0.561551,0.965947 0.96511,1.991862 1.231981,3.067145 0.119233,0.480436 0.207993,0.966516 0.266278,1.457642 0.05355,0.446006 0.08817,0.892923 0.106808,1.342178 0.01361,0.325099 0.02397,0.650768 0.01302,0.975866 -0.0142,0.454271 -0.03757,0.907973 -0.08284,1.36099"
       style="fill:#337dae;fill-opacity:1;fill-rule:nonzero;stroke:none;stroke-width:0.0290394"
       id="path88" />
  </g>
</svg>
