<?xml version="1.0" encoding="UTF-8" standalone="no"?>
<!-- Created with Inkscape (http://www.inkscape.org/) -->

<svg
   width="40.953758mm"
   height="40.953693mm"
   viewBox="0 0 40.953758 40.953693"
   version="1.1"
   id="svg1"
   inkscape:version="1.3.2 (091e20e, 2023-11-25)"
   sodipodi:docname="uccs.svg"
   xmlns:inkscape="http://www.inkscape.org/namespaces/inkscape"
   xmlns:sodipodi="http://sodipodi.sourceforge.net/DTD/sodipodi-0.dtd"
   xmlns="http://www.w3.org/2000/svg"
   xmlns:svg="http://www.w3.org/2000/svg">
  <sodipodi:namedview
     id="namedview1"
     pagecolor="#ffffff"
     bordercolor="#000000"
     borderopacity="0.25"
     inkscape:showpageshadow="2"
     inkscape:pageopacity="0.0"
     inkscape:pagecheckerboard="0"
     inkscape:deskcolor="#d1d1d1"
     inkscape:document-units="mm"
     inkscape:zoom="0.8409652"
     inkscape:cx="-136.15308"
     inkscape:cy="-2.3782197"
     inkscape:window-width="1512"
     inkscape:window-height="843"
     inkscape:window-x="0"
     inkscape:window-y="38"
     inkscape:window-maximized="0"
     inkscape:current-layer="layer1" />
  <defs
     id="defs1" />
  <g
     inkscape:label="Layer 1"
     inkscape:groupmode="layer"
     id="layer1"
     transform="translate(-55.033333,-11.112496)">
    <path
       d="m 92.971537,46.035166 c -1.66545,0 -3.015534,1.350067 -3.015534,3.015511 0,1.665315 1.350084,3.015512 3.015534,3.015512 1.665476,0 3.015556,-1.350197 3.015556,-3.015512 0,-1.665444 -1.35008,-3.015511 -3.015556,-3.015511 m 2.752263,3.300638 c -0.01527,0.156161 -0.04234,0.309922 -0.08177,0.461559 -0.0652,0.249856 -0.162091,0.486781 -0.291296,0.710516 -0.102293,0.177062 -0.22249,0.340974 -0.360568,0.491577 -0.185828,0.202772 -0.396358,0.375511 -0.632496,0.516815 -0.191413,0.114496 -0.393517,0.205146 -0.606562,0.27114 -0.123184,0.03817 -0.248394,0.06768 -0.3759,0.08846 -0.07574,0.01225 -0.15184,0.02151 -0.228142,0.028 -0.113422,0.0097 -0.227052,0.01102 -0.340531,0.0058 -0.09804,-0.0046 -0.195859,-0.01406 -0.292901,-0.02965 -0.122939,-0.01981 -0.243951,-0.04755 -0.362589,-0.08408 l 0.281715,-0.06458 c 0.03678,-0.0061 0.224434,-0.07153 0.245453,-0.08196 0.188368,-0.09471 0.363525,-0.209204 0.524234,-0.345577 0.210058,-0.178241 0.386918,-0.385112 0.528654,-0.621596 0.118046,-0.197011 0.205289,-0.406948 0.257849,-0.630864 0.01898,-0.08069 0.03217,-0.162313 0.04128,-0.244786 0.0049,-0.04481 0.0063,-0.08984 0.0087,-0.134669 0.0028,-0.05424 -0.0022,-0.108387 -0.0083,-0.162307 -0.006,-0.05503 -0.01663,-0.109078 -0.0315,-0.162391 -0.02799,-0.09954 -0.07222,-0.191083 -0.132052,-0.27526 l -0.01193,-0.01374 -0.0077,0.0016 -0.0095,0.02584 c -0.01547,0.05106 -0.03525,0.100412 -0.05948,0.147859 -0.08132,0.158899 -0.199606,0.283542 -0.350999,0.377158 -0.120908,0.0747 -0.25215,0.121453 -0.39228,0.143294 -0.05857,0.0092 -0.117828,0.01434 -0.177328,0.01274 -0.212334,-0.0058 -0.406604,-0.06618 -0.578004,-0.193904 -0.162314,-0.120933 -0.271492,-0.278653 -0.328358,-0.472926 -0.02376,-0.08077 -0.03695,-0.163097 -0.04345,-0.247051 -0.005,-0.06677 -0.0038,-0.133069 0.003,-0.199141 0.02162,-0.211095 0.09678,-0.400475 0.232688,-0.564595 0.132296,-0.159907 0.298808,-0.271499 0.491135,-0.346465 0.107249,-0.04182 0.2185,-0.06847 0.332451,-0.08333 0.03639,-0.0048 0.07314,-0.0088 0.109994,-0.009 0.02045,0 0.04093,-0.0029 0.0613,-0.0028 0.212578,9.42e-4 0.416267,0.04265 0.610074,0.131178 0.141834,0.06468 0.26946,0.150348 0.384222,0.255757 0.130005,0.119645 0.235432,0.25819 0.32028,0.412871 0.0927,0.169248 0.154111,0.349634 0.192119,0.538224 0.01636,0.0812 0.02671,0.163304 0.03422,0.246001 0.0049,0.05505 0.0066,0.110314 0.0076,0.165471 0.0011,0.06529 -0.0015,0.130814 -0.0073,0.196081 -0.0037,0.04085 -0.0078,0.08143 -0.01295,0.122045 -0.0083,0.06494 -0.02027,0.12923 -0.0346,0.193151 -0.04036,0.180594 -0.103151,0.353152 -0.186072,0.518404 l -0.0075,0.01684 0.0014,0.0084 0.01033,-0.0017 0.01447,-0.01583 c 0.166735,-0.206529 0.287747,-0.436617 0.357701,-0.693087 0.02593,-0.09485 0.04365,-0.191208 0.05491,-0.288882 0.01104,-0.09566 0.01776,-0.19153 0.01603,-0.28776 -0.0013,-0.07472 -0.0065,-0.149117 -0.01556,-0.223392 -0.01173,-0.09451 -0.03003,-0.187655 -0.0555,-0.279443 -0.06312,-0.227595 -0.166169,-0.435136 -0.312648,-0.620671 -0.198472,-0.25155 -0.449832,-0.429432 -0.750666,-0.538531 -0.108066,-0.03912 -0.219072,-0.06686 -0.332374,-0.08463 -0.04548,-0.0072 -0.09122,-0.01179 -0.137164,-0.01569 -0.05311,-0.0044 -0.106237,-0.0055 -0.159452,-0.0047 -0.251926,0.0039 -0.490215,0.06146 -0.711318,0.184169 -0.09974,0.05538 -0.19096,0.12271 -0.274229,0.200741 -0.09542,0.08962 -0.176393,0.19061 -0.242933,0.303189 -0.0746,0.126165 -0.127268,0.260813 -0.159327,0.40368 -0.018,0.07996 -0.02857,0.160827 -0.03266,0.242817 -0.0031,0.06051 -0.0019,0.120928 0.0033,0.180833 0.01137,0.130243 0.04106,0.256267 0.09124,0.377278 0.05934,0.143537 0.14238,0.271712 0.251458,0.382172 0.160242,0.162167 0.352708,0.267286 0.574721,0.318323 0.06287,0.01447 0.126695,0.02206 0.191064,0.02699 0.06166,0.0046 0.122721,0.0011 0.183905,-0.0031 0.02242,-0.0015 0.04461,-0.0056 0.06691,-0.0085 l 0.02727,-0.0035 c -0.02727,0.02039 -0.05664,0.0323 -0.08587,0.04401 -0.07926,0.03162 -0.161275,0.05347 -0.245677,0.06439 -0.08756,0.01147 -0.175395,0.01201 -0.263308,0.0021 -0.128644,-0.01431 -0.250103,-0.05148 -0.364642,-0.111207 -0.136374,-0.07097 -0.250789,-0.168786 -0.346879,-0.288311 -0.0992,-0.123183 -0.17244,-0.260714 -0.22861,-0.407987 -0.04322,-0.113052 -0.07405,-0.229621 -0.09497,-0.348725 -0.01025,-0.05834 -0.01695,-0.117234 -0.02162,-0.17649 -0.0048,-0.06032 -0.0057,-0.120585 -0.0043,-0.180979 0.0033,-0.140674 0.02377,-0.27898 0.06198,-0.414439 0.05903,-0.208487 0.15594,-0.397539 0.289919,-0.567576 0.07951,-0.100735 0.169349,-0.19165 0.267959,-0.273837 0.196888,-0.164116 0.41809,-0.286306 0.656384,-0.378624 0.150152,-0.05824 0.304829,-0.100786 0.463246,-0.128892 0.06951,-0.01242 0.139435,-0.02161 0.209856,-0.02743 0.07746,-0.0064 0.155025,-0.01138 0.232834,-0.01018 0.100288,0.0013 0.200176,0.0086 0.299675,0.02213 0.258098,0.03527 0.502149,0.113151 0.731673,0.236588 0.131158,0.07055 0.252861,0.154764 0.365452,0.252381 0.175037,0.151699 0.318477,0.328906 0.431525,0.530894 0.0986,0.176064 0.169467,0.363058 0.216328,0.559051 0.02094,0.08757 0.03652,0.176168 0.04676,0.265686 0.0094,0.08129 0.01548,0.162754 0.01875,0.24464 0.0024,0.05926 0.0042,0.118616 0.0023,0.177872 -0.0025,0.0828 -0.0066,0.165497 -0.01455,0.248069"
       style="fill:#337dae;fill-opacity:1;fill-rule:nonzero;stroke:none;stroke-width:0.00519519"
       id="path88" />
  </g>
</svg>
